<?xml version="1.0" encoding="utf-8"?>
<!-- Generator: Adobe Illustrator 17.1.0, SVG Export Plug-In . SVG Version: 6.00 Build 0)  -->
<!DOCTYPE svg PUBLIC "-//W3C//DTD SVG 1.1//EN" "http://www.w3.org/Graphics/SVG/1.1/DTD/svg11.dtd">
<svg version="1.1" id="Layer_1" xmlns="http://www.w3.org/2000/svg" xmlns:xlink="http://www.w3.org/1999/xlink" x="0px" y="0px"
	 viewBox="0 0 512 512" enable-background="new 0 0 512 512" xml:space="preserve">
<g>
	<path fill="#0088CC" d="M256,0C114.6,0,0,114.6,0,256c0,68.4,26.8,130.4,70.4,176.4c6.9-11,17.2-21.7,32.4-30.5
		c35.5-21.4,83.2-24.3,109-25.9c-8-10.1-17.2-20.8-17.2-38.4c0-9.5,2.9-15.2,5.7-21.9c-6.4,0.6-12.5,1.2-18.2,1.2
		c-60.5,0-94.7-44.5-94.7-88.4c0-25.9,12.1-54.7,36.5-75.5c32.6-26.4,71.3-31,102.1-31h117.4L307,142.2h-35.2
		c13.1,10.7,40.4,33.2,40.4,76.1c0,41.7-24,61.3-47.8,79.9c-7.6,7.3-16,15.2-16,27.5c0,12.3,8.4,19.2,14.8,24.3l20.5,15.8
		c25.2,20.6,48,39.9,48,78.7c0,22.2-9.1,44.4-26.9,62.8C422.8,484.6,512,380.7,512,256C512,114.6,397.4,0,256,0z M455.4,260.4h-25.8
		v-57.3h-55.1v-24.5h55.1v-56.7h25.8v56.7H500c0.3,1,0.7,2,1,3c0.4,1.4,0.8,2.8,1.2,4.2c0.7,2.5,1.4,5,2.1,7.6
		c0.4,1.6,0.8,3.3,1.1,4.9c0.4,1.6,0.7,3.2,1.1,4.8h-51.1L455.4,260.4L455.4,260.4z"/>
	<path fill="#0088CC" d="M293.2,466.6c0-28.7-18.7-43.9-62.1-74.5c-4.5-0.4-7.4-0.4-13.1-0.4c-5.1,0-35.9,1-59.8,8.9
		c-12.5,4.4-49,18-49,58.1c0,2.5,0.2,5,0.5,7.4C151.2,495,201.6,512,256,512c4.6,0,9.1-0.1,13.7-0.4
		C285.2,500.7,293.2,484.9,293.2,466.6z"/>
	<path fill="#0088CC" d="M261.9,244.2c0-40.7-24.4-103.7-71.7-103.7c-14.8,0-30.7,7.3-40,18.6c-9.6,11.8-12.5,27-12.5,41.6
		c0,37.8,22.1,100.4,71.3,100.4c14.1,0,29.5-6.9,38.7-15.8C260.8,272.3,261.9,254.3,261.9,244.2z"/>
</g>
</svg>
