<?xml version="1.0" encoding="utf-8"?>
<!-- Generator: Adobe Illustrator 17.1.0, SVG Export Plug-In . SVG Version: 6.00 Build 0)  -->
<!DOCTYPE svg PUBLIC "-//W3C//DTD SVG 1.1//EN" "http://www.w3.org/Graphics/SVG/1.1/DTD/svg11.dtd">
<svg version="1.1" id="Layer_1" xmlns="http://www.w3.org/2000/svg" xmlns:xlink="http://www.w3.org/1999/xlink" x="0px" y="0px"
	 viewBox="0 0 512 512" enable-background="new 0 0 512 512" xml:space="preserve">
<g>
	<path fill="#0088CC" d="M128.6,210.3c-4-8.5-12.6-14.3-22.6-14.3c-13.8,0-25,11.2-25,25c0,10.5,6.5,19.5,15.7,23.2
		C104.7,231.7,115.5,220.2,128.6,210.3z"/>
	<circle fill="#0088CC" cx="393.5" cy="108.5" r="14.1"/>
	<path fill="#0088CC" d="M256,200.7c-80.3,0-145.3,42.7-145.3,95.3s65.1,95.3,145.3,95.3s145.3-42.7,145.3-95.3
		S336.3,200.7,256,200.7z M156,271c0-13.8,11.2-25,25-25s25,11.2,25,25s-11.2,25-25,25S156,284.8,156,271z M325.6,347.7
		C307.7,361.9,280.3,371,256,371c-24.3,0-51.7-9.1-69.6-23.3c-6.4-5.1-7.5-14.4-2.5-20.8c5.1-6.4,14.4-7.5,20.8-2.5
		c10.3,8.1,30.8,16.9,51.2,16.9s40.9-8.8,51.2-16.9c6.4-5.1,15.8-4,20.8,2.5C333.1,333.3,332,342.7,325.6,347.7z M331,296
		c-13.8,0-25-11.2-25-25s11.2-25,25-25s25,11.2,25,25S344.8,296,331,296z"/>
	<path fill="#0088CC" d="M256,0C114.6,0,0,114.6,0,256s114.6,256,256,256s256-114.6,256-256S397.4,0,256,0z M426.2,266.7
		c3.2,9.4,4.8,19.2,4.8,29.3c0,69-78.4,125-175,125c-96.7,0-175-56-175-125c0-10.1,1.7-19.9,4.8-29.3C68.3,259,56,241.4,56,221
		c0-27.6,22.4-50,50-50c18.8,0,35.2,10.4,43.7,25.7c25.1-13.8,55.7-22.8,88.9-25.1l40.5-91c3-6.8,10.6-10.3,17.7-8.2l63.6,18.4
		c6.3-11.7,18.7-19.7,33-19.7c20.7,0,37.5,16.8,37.5,37.5S414.2,146,393.5,146c-16.3,0-30.2-10.5-35.4-25L301,104.5l-29.8,67
		c34.1,2.1,65.4,11.2,91.1,25.2c8.5-15.3,24.9-25.7,43.7-25.7c27.6,0,50,22.4,50,50C456,241.4,443.7,259,426.2,266.7z"/>
	<path fill="#0088CC" d="M406,196c-10,0-18.6,5.9-22.6,14.3c13.1,9.9,23.9,21.3,31.9,33.9c9.2-3.7,15.7-12.7,15.7-23.2
		C431,207.2,419.8,196,406,196z"/>
</g>
</svg>
