<?xml version="1.0" encoding="utf-8"?>
<!-- Generator: Adobe Illustrator 18.0.0, SVG Export Plug-In . SVG Version: 6.00 Build 0)  -->
<!DOCTYPE svg PUBLIC "-//W3C//DTD SVG 1.1//EN" "http://www.w3.org/Graphics/SVG/1.1/DTD/svg11.dtd">
<svg version="1.1" id="Layer_1" xmlns="http://www.w3.org/2000/svg" xmlns:xlink="http://www.w3.org/1999/xlink" x="0px" y="0px"
	 viewBox="0 0 200 55.7" enable-background="new 0 0 200 55.7" xml:space="preserve">
<symbol  id="Ribbon_8" viewBox="-35.7 -9.9 71.4 19.8">
	<g>
		<path fill="#7A1000" d="M-34.9,9.4h13c0.7,0,1.2-0.3,1.2-0.6V7.1h41.6v1.8c0,0.3,0.5,0.6,1.2,0.6h13l-4.7-8.3l4.7-8.3h-9.4v-1.8
			c0-0.3-0.5-0.6-1.2-0.6h-48.6c-0.7,0-1.2,0.3-1.2,0.6v1.8h-9.4l4.7,8.3L-34.9,9.4L-34.9,9.4z"/>
		<path opacity="0.21" fill="#FF1D25" d="M-34.9,9.4h13c0.7,0,1.2-0.3,1.2-0.6V7.1h41.6v1.8c0,0.3,0.5,0.6,1.2,0.6h13l-4.7-8.3
			l4.7-8.3h-9.4v-1.8c0-0.3-0.5-0.6-1.2-0.6h-48.6c-0.7,0-1.2,0.3-1.2,0.6v1.8h-9.4l4.7,8.3L-34.9,9.4L-34.9,9.4z"/>
		<path fill="none" stroke="#231F20" stroke-width="0.908" d="M-34.9,9.4h13c0.7,0,1.2-0.3,1.2-0.6V7.1h41.6v1.8
			c0,0.3,0.5,0.6,1.2,0.6h13l-4.7-8.3l4.7-8.3h-9.4v-1.8c0-0.3-0.5-0.6-1.2-0.6h-48.6c-0.7,0-1.2,0.3-1.2,0.6v1.8h-9.4l4.7,8.3
			L-34.9,9.4L-34.9,9.4z"/>
	</g>
	<g>
		<path fill="#7D0C0C" d="M-20.8,8.8c0-0.3-0.5-0.6-1.2-0.6h-2.4c-0.7,0-1.2-0.3-1.2-0.6c0-0.3,0.5-0.6,1.2-0.6h3.5V8.8L-20.8,8.8z"
			/>
		<path fill="none" stroke="#231F20" stroke-width="0.908" d="M-20.8,8.8c0-0.3-0.5-0.6-1.2-0.6h-2.4c-0.7,0-1.2-0.3-1.2-0.6
			c0-0.3,0.5-0.6,1.2-0.6h3.5V8.8L-20.8,8.8z"/>
	</g>
	<g>
		<path fill="#7D0C0C" d="M20.8,8.8c0-0.3,0.5-0.6,1.2-0.6h2.4c0.6,0,1.2-0.3,1.2-0.6c0-0.3-0.5-0.6-1.2-0.6h-3.5V8.8L20.8,8.8z"/>
		<path fill="none" stroke="#231F20" stroke-width="0.908" d="M20.8,8.8c0-0.3,0.5-0.6,1.2-0.6h2.4c0.6,0,1.2-0.3,1.2-0.6
			c0-0.3-0.5-0.6-1.2-0.6h-3.5V8.8L20.8,8.8z"/>
	</g>
	<g>
		<path fill="#7D0C0C" d="M-20.8,8.8c0-0.3-0.5-0.6-1.2-0.6h-2.4c-0.7,0-1.2-0.3-1.2-0.6c0-0.3,0.5-0.6,1.2-0.6h3.5"/>
		<path fill="none" stroke="#231F20" stroke-width="0.908" d="M-20.8,8.8c0-0.3-0.5-0.6-1.2-0.6h-2.4c-0.7,0-1.2-0.3-1.2-0.6
			c0-0.3,0.5-0.6,1.2-0.6h3.5"/>
	</g>
	<g>
		<path fill="#7D0C0C" d="M20.8,8.8c0-0.3,0.5-0.6,1.2-0.6h2.4c0.6,0,1.2-0.3,1.2-0.6c0-0.3-0.5-0.6-1.2-0.6h-3.5"/>
		<path fill="none" stroke="#231F20" stroke-width="0.908" d="M20.8,8.8c0-0.3,0.5-0.6,1.2-0.6h2.4c0.6,0,1.2-0.3,1.2-0.6
			c0-0.3-0.5-0.6-1.2-0.6h-3.5"/>
	</g>
	<g>
		<line fill="#302C23" x1="-25.5" y1="7.7" x2="-25.5" y2="-7.1"/>
		<linearGradient id="SVGID_1_" gradientUnits="userSpaceOnUse" x1="-25.4941" y1="0.295" x2="-25.4941" y2="0.295">
			<stop  offset="0" style="stop-color:#FFFFFF"/>
			<stop  offset="0.1685" style="stop-color:#0B0B0B"/>
			<stop  offset="0.2637" style="stop-color:#7F7F7F"/>
			<stop  offset="0.3956" style="stop-color:#8E8E8E"/>
			<stop  offset="0.5421" style="stop-color:#636363"/>
			<stop  offset="0.6264" style="stop-color:#5F5F5F"/>
			<stop  offset="0.7179" style="stop-color:#EAEAEA"/>
			<stop  offset="0.7912" style="stop-color:#FFFFFF"/>
			<stop  offset="1" style="stop-color:#000000"/>
		</linearGradient>
		<line fill="url(#SVGID_1_)" x1="-25.5" y1="7.7" x2="-25.5" y2="-7.1"/>
		<linearGradient id="SVGID_2_" gradientUnits="userSpaceOnUse" x1="-25.4941" y1="-7.0771" x2="-25.4941" y2="7.6671">
			<stop  offset="0" style="stop-color:#FFFFFF;stop-opacity:0"/>
			<stop  offset="1" style="stop-color:#FFFFFF"/>
		</linearGradient>
		<line opacity="0.69" fill="url(#SVGID_2_)" x1="-25.5" y1="7.7" x2="-25.5" y2="-7.1"/>
		<line fill="none" stroke="#231F20" stroke-width="0.908" x1="-25.5" y1="7.7" x2="-25.5" y2="-7.1"/>
	</g>
	<g>
		<line fill="#302C23" x1="25.5" y1="7.7" x2="25.5" y2="-7.1"/>
		<linearGradient id="SVGID_3_" gradientUnits="userSpaceOnUse" x1="25.4961" y1="0.295" x2="25.4961" y2="0.295">
			<stop  offset="0" style="stop-color:#FFFFFF"/>
			<stop  offset="0.1685" style="stop-color:#0B0B0B"/>
			<stop  offset="0.2637" style="stop-color:#7F7F7F"/>
			<stop  offset="0.3956" style="stop-color:#8E8E8E"/>
			<stop  offset="0.5421" style="stop-color:#636363"/>
			<stop  offset="0.6264" style="stop-color:#5F5F5F"/>
			<stop  offset="0.7179" style="stop-color:#EAEAEA"/>
			<stop  offset="0.7912" style="stop-color:#FFFFFF"/>
			<stop  offset="1" style="stop-color:#000000"/>
		</linearGradient>
		<line fill="url(#SVGID_3_)" x1="25.5" y1="7.7" x2="25.5" y2="-7.1"/>
		<linearGradient id="SVGID_4_" gradientUnits="userSpaceOnUse" x1="25.4961" y1="-7.0771" x2="25.4961" y2="7.6671">
			<stop  offset="0" style="stop-color:#FFFFFF;stop-opacity:0"/>
			<stop  offset="1" style="stop-color:#FFFFFF"/>
		</linearGradient>
		<line opacity="0.69" fill="url(#SVGID_4_)" x1="25.5" y1="7.7" x2="25.5" y2="-7.1"/>
		<line fill="none" stroke="#231F20" stroke-width="0.908" x1="25.5" y1="7.7" x2="25.5" y2="-7.1"/>
	</g>
	<g>
		<path fill="#FFFFFF" d="M-20.3-2.9l2.9,0.2c0.1-0.5,0.2-0.8,0.4-1.1c0.3-0.4,0.8-0.6,1.4-0.6c0.4,0,0.8,0.1,1,0.3
			c0.2,0.2,0.4,0.4,0.4,0.7c0,0.3-0.1,0.5-0.3,0.7s-0.8,0.4-1.6,0.6c-1.4,0.3-2.3,0.7-2.9,1.2c-0.6,0.5-0.9,1.2-0.9,1.9
			c0,0.5,0.1,1,0.4,1.5s0.7,0.8,1.3,1.1S-16.7,4-15.7,4c1.3,0,2.3-0.2,2.9-0.7S-11.7,2-11.5,1l-2.9-0.2c-0.1,0.5-0.2,0.8-0.5,1
			s-0.6,0.3-1,0.3c-0.4,0-0.6-0.1-0.8-0.2s-0.3-0.3-0.3-0.6c0-0.2,0.1-0.3,0.2-0.4c0.1-0.1,0.5-0.3,1-0.4c1.4-0.3,2.3-0.6,2.9-0.9
			c0.6-0.3,1-0.7,1.3-1.1c0.3-0.4,0.4-0.9,0.4-1.5c0-0.6-0.2-1.2-0.5-1.8c-0.4-0.5-0.9-1-1.5-1.2s-1.4-0.4-2.4-0.4
			c-1.7,0-2.9,0.3-3.5,1S-20.2-3.9-20.3-2.9z"/>
		<path fill="#FFFFFF" d="M-3.5-4.6H-7l-0.5-1.7h-3.2l3.8,10h3.4l3.8-10H-3L-3.5-4.6z M-4.1-2.4l-1.1,3.6l-1.1-3.6H-4.1z"/>
		<path fill="#FFFFFF" d="M1.2,3.8h3.1v-7.6h4.8v-2.5H1.2V3.8z"/>
		<path fill="#FFFFFF" d="M10.6,3.8h8.3V1.6h-5.2V0h4.8v-2h-4.8v-2H19v-2.3h-8.4V3.8z"/>
	</g>
</symbol>
<use xlink:href="#Ribbon_8"  width="71.4" height="19.8" x="-35.7" y="-9.9" transform="matrix(2.7417 0 0 -2.7417 100.0016 27.7987)" overflow="visible"/>
</svg>
