<?xml version="1.0" encoding="utf-8"?>
<!-- Generator: Adobe Illustrator 17.1.0, SVG Export Plug-In . SVG Version: 6.00 Build 0)  -->
<!DOCTYPE svg PUBLIC "-//W3C//DTD SVG 1.1//EN" "http://www.w3.org/Graphics/SVG/1.1/DTD/svg11.dtd">
<svg version="1.1" id="Layer_1" xmlns="http://www.w3.org/2000/svg" xmlns:xlink="http://www.w3.org/1999/xlink" x="0px" y="0px"
	 viewBox="0 160 160 160" enable-background="new 0 160 160 160" xml:space="preserve">
<path fill="#0088CC" d="M136,160H24c-13.3,0-24,10.7-24,24v112c0,13.3,10.7,24,24,24h112c13.3,0,24-10.7,24-24V184
	C160,170.7,149.3,160,136,160z M138.5,217.8c-2.7,4-6.1,7.4-10,10.3c-0.3,0.2-0.4,0.4-0.4,0.8c0,1.3,0.1,2.7,0,4
	c-0.1,3.6-0.5,7.1-1.3,10.5c-1.4,6.9-4,13.4-7.5,19.5c-3.4,5.9-7.7,11.1-12.8,15.6c-4.7,4.1-9.9,7.4-15.7,9.8
	c-4.8,2-9.7,3.4-14.8,4.2c-1.9,0.3-3.8,0.5-5.8,0.7c-0.2,0-0.4-0.1-0.5,0.2c-0.3,0-0.6,0-0.9,0c-0.2-0.2-0.4-0.1-0.7,0
	c-2,0-4,0-6.1,0c-0.2-0.1-0.3-0.2-0.4,0c-0.3,0-0.7,0-1.1,0c0,0,0,0,0,0l0,0c-0.2-0.1-0.4-0.1-0.6-0.1c-3.7-0.3-7.3-0.9-10.8-1.8
	c-5.7-1.5-11-3.7-16.1-6.6c-0.7-0.4-1.3-0.8-2.1-1.3c12.2,1.2,23-1.8,32.8-9c-11.4-0.5-18.6-8.3-20.6-15.2c3.3,0.6,6.5,0.5,9.7-0.4
	c-5.1-1.2-9.4-3.7-12.7-7.8c-3.3-4.1-4.9-8.7-4.9-14c1.6,0.9,3.2,1.5,4.8,2c1.7,0.5,3.3,0.8,5.2,0.8c-11.6-8.1-11.4-21.9-6.7-29.1
	c1.3,1.6,2.7,3.1,4.2,4.6c4.1,4,8.6,7.4,13.6,10.2c8.5,4.8,17.7,7.4,27.5,8c0.3,0,0.4,0,0.3-0.3c-0.3-1.1-0.4-2.2-0.5-3.3
	c-0.3-4.8,0.8-9.2,3.5-13.2c3.7-5.6,9-8.9,15.7-9.9c0.1,0,0.4,0.1,0.3-0.2c0.2,0,0.3,0,0.5,0c0.1,0.1,0.2,0.1,0.3,0
	c1.1,0,2.2,0,3.3,0c0.2,0.1,0.3,0.2,0.4,0c0.2,0,0.4,0,0.5,0c0,0.3,0.2,0.2,0.3,0.2c0.6,0.1,1.2,0.2,1.7,0.3c4.3,0.9,8,2.9,11.2,6.1
	c0.2,0.2,0.4,0.3,0.8,0.3c3.7-0.8,7.3-2,10.7-3.7c1-0.5,1.9-1,3-1.5c-0.8,2.6-2.1,4.8-3.7,6.8c-1.6,2-3.6,3.8-5.8,5.2
	c4.3-0.5,8.4-1.6,12.5-3.4C138.8,217.4,138.7,217.6,138.5,217.8z"/>
</svg>
