<?xml version="1.0" encoding="utf-8"?>
<!-- Generator: Adobe Illustrator 17.1.0, SVG Export Plug-In . SVG Version: 6.00 Build 0)  -->
<!DOCTYPE svg PUBLIC "-//W3C//DTD SVG 1.1//EN" "http://www.w3.org/Graphics/SVG/1.1/DTD/svg11.dtd">
<svg version="1.1" id="Layer_1" xmlns="http://www.w3.org/2000/svg" xmlns:xlink="http://www.w3.org/1999/xlink" x="0px" y="0px"
	 viewBox="0 160 160 160" enable-background="new 0 160 160 160" xml:space="preserve">
<path fill="#0088CC" d="M136,160H24c-13.3,0-24,10.7-24,24v112c0,13.3,10.7,24,24,24h112c13.3,0,24-10.7,24-24V184
	C160,170.7,149.3,160,136,160z M46.9,282.2c-7.3,0-13.3-6.1-13.3-13.6c0-7.3,5.9-13.1,13-13c7,0.2,12.8,6,12.9,13.2
	C59.8,276.2,54.1,282.2,46.9,282.2z M76.3,281.1c0-0.9,0-1.8,0-2.7c-0.9-23-19.1-41.5-41.5-42.3c-0.3,0-0.6,0-0.9,0l0.1-17
	c31.6,1.6,57.5,27.7,59.3,60.3c0,0.6,0,1.2,0.1,1.8L76.3,281.1z M106,281c-2.8-39.7-33.8-71.4-72.1-74.7l0.1-16.6
	c46.5,4.3,84.5,42.8,88.7,91.2H106z"/>
</svg>
