<?xml version="1.0" encoding="utf-8"?>
<!-- Generator: Adobe Illustrator 17.1.0, SVG Export Plug-In . SVG Version: 6.00 Build 0)  -->
<!DOCTYPE svg PUBLIC "-//W3C//DTD SVG 1.1//EN" "http://www.w3.org/Graphics/SVG/1.1/DTD/svg11.dtd">
<svg version="1.1" id="Layer_1" xmlns="http://www.w3.org/2000/svg" xmlns:xlink="http://www.w3.org/1999/xlink" x="0px" y="0px"
	 viewBox="0 0 512 512" enable-background="new 0 0 512 512" xml:space="preserve">
<path fill="#0088CC" d="M256,0C114.6,0,0,114.6,0,256s114.6,256,256,256s256-114.6,256-256S397.4,0,256,0z M411.1,217.9
	c-1,0.7-1.3,1.4-1.2,2.5c0.1,4.3,0.2,8.6,0.1,12.9c-0.3,11.4-1.7,22.6-4,33.7c-4.6,22.1-12.7,42.9-24.1,62.5
	c-11,18.8-24.7,35.5-41.1,49.9c-15,13.1-31.7,23.6-50.1,31.5c-15.2,6.5-31.1,11-47.5,13.5c-6.2,1-12.3,1.7-18.5,2.1
	c-0.5,0-1.3-0.4-1.5,0.6c-0.9,0-1.8,0-2.8,0c-0.7-0.5-1.4-0.4-2.1,0c-6.5,0-12.9,0-19.4,0c-0.5-0.4-0.9-0.6-1.4,0
	c-1.1,0-2.3,0-3.5,0c0-0.1,0.1-0.1,0.1-0.1c0,0,0.1-0.1,0.1-0.1c-0.5-0.4-1.2-0.3-1.8-0.4c-11.7-0.8-23.3-2.8-34.6-5.7
	c-18.2-4.7-35.3-11.7-51.5-21.1c-2.1-1.2-4.1-2.5-6.6-4c39,3.9,73.7-5.7,104.8-28.9c-36.6-1.5-59.4-26.6-66-48.7
	c10.5,1.8,20.8,1.6,31.1-1.2c-16.4-3.8-30-11.9-40.5-24.9c-10.6-13-15.6-27.8-15.6-44.8c5.1,2.8,10.1,4.8,15.3,6.3
	c5.3,1.5,10.7,2.4,16.5,2.5c-37.1-25.9-36.6-70-21.5-93.2c4.2,5.1,8.7,10,13.4,14.7c13,12.8,27.4,23.8,43.4,32.7
	c27.3,15.2,56.7,23.7,88,25.5c0.9,0.1,1.2-0.1,0.9-1.1c-0.8-3.4-1.3-6.9-1.5-10.5c-0.8-15.2,2.7-29.3,11.1-42.1
	c11.9-17.9,28.7-28.5,50.3-31.6c0.4-0.1,1.2,0.3,1.1-0.6c0.6,0,1.1,0,1.7,0c0.4,0.4,0.7,0.4,1,0c3.6,0,7.1,0,10.7,0
	c0.5,0.4,0.9,0.6,1.4,0c0.6,0,1.2,0,1.7,0c0,0.9,0.7,0.6,1.1,0.7c1.8,0.3,3.7,0.6,5.4,0.9c13.9,2.9,25.7,9.4,35.7,19.4
	c0.7,0.7,1.3,1.1,2.4,0.9c11.9-2.5,23.3-6.3,34.2-11.7c3.1-1.5,6.1-3.2,9.5-4.9c-2.7,8.2-6.7,15.3-11.9,21.9
	c-5.2,6.5-11.5,12-18.6,16.5c13.7-1.6,26.8-5.2,40-10.8c-0.7,1.1-1.1,1.7-1.6,2.3C434.6,197.7,423.8,208.7,411.1,217.9z"/>
</svg>
